<?xml version="1.0" standalone="no"?>
<!DOCTYPE svg PUBLIC "-//W3C//DTD SVG 20010904//EN"
 "http://www.w3.org/TR/2001/REC-SVG-20010904/DTD/svg10.dtd">
<svg version="1.0" xmlns="http://www.w3.org/2000/svg"
 width="2560.000000pt" height="2560.000000pt" viewBox="0 0 2560.000000 2560.000000"
 preserveAspectRatio="xMidYMid meet">
<metadata>
Created by potrace 1.11, written by Peter Selinger 2001-2013
</metadata>
<g transform="translate(0.000000,2560.000000) scale(0.100000,-0.100000)"
fill="#000000" stroke="none">
<path d="M15327 17503 c-4 -15 -69 -171 -109 -263 -6 -14 -12 -27 -13 -30 -5
-15 -28 -69 -43 -100 -9 -19 -17 -37 -18 -40 -1 -8 -219 -521 -249 -585 -7
-16 -22 -52 -33 -80 -11 -27 -30 -72 -43 -100 -12 -27 -23 -52 -24 -55 -9 -28
-99 -235 -106 -245 -3 -5 -10 -25 -14 -42 -3 -18 -11 -33 -16 -33 -5 0 -9 -6
-9 -14 0 -7 -13 -42 -28 -77 -27 -59 -43 -97 -47 -109 -4 -11 -26 -63 -46
-108 -21 -48 -43 -97 -61 -142 -57 -137 -96 -228 -116 -270 -9 -19 -17 -39
-18 -45 -1 -5 -13 -35 -27 -65 -26 -58 -100 -231 -113 -265 -4 -11 -6 -23 -6
-27 1 -5 -2 -8 -8 -8 -5 0 -10 -7 -10 -15 0 -8 -4 -23 -10 -33 -11 -20 -44
-95 -46 -102 0 -3 -5 -16 -11 -30 -97 -228 -128 -302 -145 -340 -11 -25 -24
-54 -28 -65 -5 -11 -21 -47 -36 -80 -14 -33 -27 -64 -29 -70 -1 -5 -10 -28
-20 -50 -10 -22 -19 -44 -21 -50 -1 -9 -18 -48 -69 -160 -15 -32 -37 -87 -40
-95 -1 -3 -8 -21 -17 -40 -21 -49 -89 -209 -93 -220 -2 -6 -14 -33 -60 -140
-20 -47 -40 -94 -45 -105 -8 -20 -4 -20 376 -20 l384 0 35 85 c20 47 40 94 45
105 4 11 25 61 45 110 20 50 43 106 51 125 9 19 19 44 23 55 5 11 18 43 29 70
12 28 40 95 62 150 23 55 45 109 50 120 4 11 21 52 36 90 16 39 33 73 39 77 5
4 7 8 3 8 -7 0 11 51 33 96 l11 21 699 -1 c384 0 699 3 699 7 0 5 5 5 12 1 6
-4 112 -7 234 -7 157 1 226 -2 232 -11 5 -6 19 -36 31 -66 12 -30 27 -66 33
-80 41 -96 119 -284 122 -295 1 -5 10 -25 19 -42 10 -18 17 -35 17 -38 0 -3 7
-21 15 -41 8 -20 15 -43 15 -50 0 -8 5 -14 10 -14 6 0 10 -6 10 -14 0 -7 9
-35 21 -62 11 -27 24 -58 29 -69 4 -11 17 -41 29 -67 12 -26 21 -50 21 -54 0
-3 14 -38 31 -77 17 -40 36 -84 42 -99 7 -16 14 -29 17 -29 17 -4 793 -3 800
1 4 3 -19 66 -51 140 -33 74 -59 140 -59 147 0 7 -4 13 -10 13 -5 0 -10 9 -10
19 0 11 -4 22 -9 25 -5 3 -12 17 -15 31 -4 14 -17 49 -30 78 -13 28 -43 97
-66 152 -23 55 -53 124 -66 153 -13 29 -24 55 -24 58 0 3 -8 24 -19 47 -10 23
-40 92 -66 152 -26 61 -53 124 -60 140 -7 17 -46 107 -85 200 -40 94 -79 186
-87 205 -30 68 -42 98 -177 415 -75 176 -141 329 -146 340 -5 11 -18 43 -30
70 -12 28 -26 61 -32 75 -6 14 -14 34 -19 45 -5 11 -29 67 -54 125 -26 58 -48
112 -50 120 -2 8 -10 29 -18 45 -9 17 -36 80 -61 140 -26 61 -53 122 -62 137
-8 15 -14 29 -13 30 1 2 -5 19 -13 38 -9 19 -27 62 -41 95 -13 33 -46 110 -72
170 -56 129 -49 114 -160 375 -48 113 -96 225 -107 250 -20 43 -40 90 -43 100
-2 5 -5 13 -53 125 l-30 70 -345 3 c-322 2 -345 1 -350 -15z m378 -1063 c0 -3
11 -27 23 -54 12 -27 22 -52 22 -56 0 -4 6 -20 14 -36 19 -39 64 -142 71 -164
2 -6 8 -19 65 -157 23 -54 45 -107 50 -118 5 -11 30 -72 56 -135 26 -63 55
-133 64 -155 10 -22 42 -98 71 -170 30 -71 58 -133 64 -137 5 -4 6 -8 1 -8 -5
0 -4 -6 2 -12 6 -7 11 -16 11 -21 0 -4 8 -23 16 -43 8 -20 15 -38 15 -40 0 -2
11 -28 25 -58 14 -30 25 -61 25 -68 0 -10 -39 -13 -185 -13 -102 0 -185 4
-185 8 0 5 -6 5 -12 0 -19 -11 -108 -10 -108 2 0 7 -3 7 -8 0 -9 -12 -192 -13
-192 -1 0 5 -6 4 -12 -1 -15 -11 -99 -10 -116 1 -7 4 -12 4 -12 -1 0 -6 -312
-9 -433 -4 -13 1 -15 5 -8 19 19 33 51 115 51 128 0 8 5 14 10 14 6 0 10 7 10
15 0 8 4 23 9 33 14 27 56 125 57 131 0 3 8 24 18 46 10 22 26 60 36 85 10 25
28 68 41 95 12 28 23 57 25 65 2 8 7 23 13 35 29 59 69 155 64 155 -3 0 1 7 8
16 7 9 14 21 15 28 1 9 160 392 208 501 7 17 26 61 42 99 l28 69 20 -44 c11
-24 20 -46 21 -49z"/>
<path d="M19258 17514 c-2 -1 -120 -5 -263 -9 -228 -5 -369 -10 -385 -14 -8
-2 -6 -4301 2 -4303 79 -16 1215 -36 1398 -24 111 8 208 19 270 31 14 3 39 7
55 10 78 11 268 66 347 99 21 9 40 16 43 17 2 0 39 18 81 40 240 126 411 294
522 514 37 72 72 172 64 179 -3 3 -1 6 5 6 5 0 10 6 10 13 1 6 6 37 13 67 12
57 17 91 25 150 6 42 6 251 1 300 -7 66 -36 211 -44 225 -4 6 -7 12 -7 15 -3
20 -33 94 -62 148 -41 77 -65 112 -118 171 -57 62 -58 63 -105 102 -23 18 -48
39 -54 44 -23 19 -226 128 -226 121 0 -3 -20 3 -45 14 -25 11 -49 20 -53 20
-22 2 -52 13 -52 19 0 3 26 19 58 36 76 40 188 116 235 160 21 19 42 35 48 35
5 0 9 4 9 8 0 4 15 23 33 42 18 20 43 52 55 73 13 20 27 37 32 37 5 0 12 10
16 23 3 12 13 30 22 40 8 9 12 17 7 17 -4 0 -1 10 7 23 15 22 57 127 63 157 2
8 4 15 5 15 1 0 3 9 5 20 3 11 6 31 9 45 17 89 22 165 20 277 -2 145 -5 169
-34 278 -6 22 -13 48 -15 58 -2 11 -22 56 -44 101 -43 88 -96 164 -164 235
-45 47 -180 151 -195 151 -5 0 -15 7 -22 15 -7 8 -21 15 -31 15 -11 0 -19 3
-19 8 0 27 -376 146 -422 134 -5 -1 -8 2 -8 6 0 5 -6 9 -12 9 -32 1 -142 15
-161 20 -20 6 -914 13 -919 7z m262 -714 c17 9 465 5 519 -4 18 -3 52 -11 75
-17 22 -6 46 -12 51 -14 69 -16 175 -77 231 -132 78 -78 94 -101 104 -148 1
-5 5 -14 10 -20 32 -39 46 -231 24 -325 -7 -32 -15 -64 -16 -71 -2 -7 -18 -43
-37 -79 -58 -113 -188 -217 -318 -255 -117 -33 -173 -38 -480 -39 -276 -2
-313 0 -314 14 0 8 -2 255 -2 548 -2 525 -2 533 18 537 39 9 90 10 105 4 8 -4
21 -4 30 1z m615 -1765 c22 -4 72 -16 110 -27 39 -10 75 -20 80 -21 20 -5 129
-60 149 -76 147 -116 205 -244 201 -437 -3 -114 -9 -150 -35 -219 -27 -73 -44
-103 -92 -161 -36 -43 -143 -127 -167 -130 -3 0 -18 -6 -33 -12 -54 -23 -83
-34 -103 -38 -55 -12 -125 -25 -170 -31 -94 -13 -592 -4 -676 12 -13 3 -25 9
-28 14 -5 7 -6 1063 -2 1130 1 11 63 12 364 8 199 -3 380 -8 402 -12z"/>
<path d="M10548 17496 c-2 -6 -3 -981 -3 -2166 l1 -2155 387 -1 c350 -1 387 0
388 15 0 9 0 354 0 766 l0 750 382 0 c346 0 445 4 530 20 15 3 39 7 54 10 23
4 122 25 146 31 4 1 9 3 12 4 3 1 8 3 13 4 85 23 290 106 322 131 8 7 22 15
30 19 8 3 29 15 45 26 17 11 37 23 45 27 8 4 29 20 45 35 17 15 33 28 36 28
18 0 182 171 234 244 11 16 25 34 30 40 31 37 112 187 144 269 41 104 78 247
83 319 1 22 4 41 7 43 8 4 5 283 -3 355 -11 96 -37 216 -71 315 -18 53 -75
183 -87 200 -4 6 -31 45 -59 88 -54 83 -194 231 -247 262 -18 11 -32 23 -32
27 0 4 -7 8 -15 8 -8 0 -15 4 -15 8 0 13 -196 117 -265 141 -22 8 -51 18 -65
24 -14 6 -27 11 -30 12 -3 1 -12 4 -20 7 -35 13 -163 45 -210 53 -14 2 -44 8
-67 13 -23 5 -44 7 -47 5 -2 -3 -10 -2 -16 2 -7 4 -38 9 -69 12 -31 2 -69 6
-86 9 -16 3 -366 7 -777 9 -546 2 -748 -1 -750 -9z m1537 -700 c22 -4 76 -15
120 -27 44 -11 86 -20 93 -21 6 -1 12 -5 12 -10 0 -4 6 -8 13 -8 35 0 187
-100 187 -122 0 -6 3 -8 6 -5 8 8 63 -64 91 -118 60 -117 75 -185 76 -340 1
-226 -55 -372 -196 -507 -75 -74 -228 -151 -337 -172 -19 -3 -46 -9 -60 -12
-65 -14 -309 -24 -316 -12 -3 4 -15 3 -28 -2 -13 -5 -26 -6 -29 -3 -3 3 -46 7
-94 9 -106 4 -250 13 -278 18 -20 3 -20 11 -20 666 l0 664 164 2 c90 2 165 4
167 6 5 6 387 0 429 -6z"/>
<path d="M21979 17491 c0 -9 -1 -169 -2 -356 l0 -340 715 0 716 0 0 -1790 c0
-984 1 -1800 1 -1812 l1 -21 385 0 c350 0 385 2 386 17 0 9 1 823 1 1809 1
985 4 1793 7 1793 3 1 321 2 706 3 l700 1 3 356 2 356 -1810 -1 c-1638 0
-1810 -1 -1811 -15z"/>
<path d="M3935 16881 c-3 -2 -30 -5 -62 -6 -32 -2 -87 -6 -123 -10 -36 -4 -81
-8 -101 -10 -20 -2 -50 -6 -65 -9 -16 -3 -49 -8 -74 -11 -54 -6 -68 -8 -230
-42 -69 -14 -134 -27 -145 -29 -49 -8 -319 -86 -385 -111 -21 -8 -43 -14 -57
-15 -7 -1 -13 -5 -13 -10 0 -4 -6 -8 -14 -8 -24 0 -280 -107 -430 -179 -156
-74 -341 -178 -455 -252 -41 -27 -78 -49 -82 -49 -5 0 -9 -4 -9 -8 0 -4 -15
-16 -33 -27 -17 -10 -48 -31 -67 -47 -19 -15 -38 -28 -42 -28 -4 0 -18 -9 -30
-19 -45 -38 -67 -56 -94 -76 -15 -11 -32 -25 -38 -30 -6 -6 -24 -21 -41 -34
-109 -83 -427 -393 -515 -501 -25 -30 -55 -65 -67 -78 -13 -12 -23 -26 -23
-29 0 -3 -6 -11 -13 -17 -39 -31 -294 -397 -353 -506 -10 -19 -21 -37 -24 -40
-3 -3 -12 -18 -20 -35 -8 -16 -17 -32 -21 -35 -3 -3 -20 -34 -38 -69 -18 -34
-41 -78 -52 -97 -10 -19 -19 -36 -19 -39 0 -3 -7 -19 -16 -36 -27 -54 -144
-330 -144 -342 0 -7 -7 -25 -16 -42 -20 -37 -27 -132 -11 -160 6 -11 11 -22
12 -25 0 -9 35 -55 35 -47 0 4 11 0 25 -9 49 -32 156 -10 188 39 8 12 39 85
70 162 30 77 64 160 75 185 12 25 21 49 21 54 -1 5 3 12 8 15 4 3 28 48 53 99
24 50 47 92 50 92 4 0 7 6 7 13 0 6 37 73 82 147 98 161 104 171 114 184 4 6
30 43 57 81 106 150 187 252 305 383 64 71 235 241 309 307 95 84 109 97 146
125 18 14 46 37 63 53 17 15 35 27 39 27 3 0 13 6 20 13 21 20 108 82 199 141
46 31 89 59 94 64 6 4 17 11 25 15 8 4 29 16 45 27 17 10 41 25 55 33 14 7 50
27 80 44 59 33 182 96 190 98 3 1 40 18 84 38 43 20 80 37 82 37 2 0 23 9 47
20 88 40 325 123 427 149 25 7 52 15 60 18 19 8 80 23 155 39 6 1 28 6 50 12
22 6 56 13 75 16 19 3 46 8 60 11 27 5 79 14 120 20 14 1 25 4 25 5 0 1 14 3
30 5 17 1 62 6 100 10 39 4 81 9 95 11 134 22 597 22 795 0 17 -2 62 -7 100
-11 69 -7 100 -12 100 -15 0 -1 16 -3 35 -5 19 -2 44 -5 55 -8 11 -2 43 -8 70
-13 65 -10 69 -11 75 -14 3 -1 14 -3 25 -5 53 -9 223 -50 255 -62 8 -3 24 -8
35 -10 11 -2 27 -6 35 -10 8 -3 20 -7 27 -9 15 -3 83 -24 103 -31 27 -10 145
-53 155 -57 6 -2 19 -7 30 -11 11 -5 40 -16 65 -25 98 -38 335 -152 435 -208
98 -56 117 -67 175 -103 30 -18 57 -37 58 -41 2 -4 8 -8 13 -8 8 0 136 -83
179 -117 8 -6 53 -41 100 -77 233 -180 476 -416 652 -631 111 -137 161 -205
266 -362 86 -129 151 -204 168 -196 2 1 17 -2 33 -7 16 -4 32 -5 36 -2 3 3 17
7 30 8 58 3 106 68 98 133 -2 20 -5 43 -5 51 -1 8 -10 30 -20 48 -10 17 -27
48 -38 68 -11 19 -29 45 -40 56 -11 12 -20 26 -20 31 0 7 -36 62 -73 112 -4 5
-20 26 -35 47 -15 20 -36 49 -47 64 -23 31 -144 183 -160 200 -5 6 -35 39 -65
74 -90 103 -392 400 -407 400 -3 0 -10 6 -17 13 -7 6 -37 32 -66 57 -29 25
-59 51 -67 58 -7 7 -13 10 -13 5 0 -4 -4 -3 -8 2 -4 6 -36 33 -72 60 -36 27
-67 53 -68 57 -2 5 -8 6 -13 3 -4 -3 -14 3 -21 15 -7 11 -18 20 -25 20 -6 0
-24 10 -40 23 -15 12 -40 29 -55 36 -16 8 -28 18 -28 23 0 4 -5 8 -11 8 -6 0
-24 9 -39 20 -93 66 -394 224 -590 310 -197 85 -548 206 -659 225 -19 3 -38 8
-43 11 -4 3 -18 7 -30 9 -13 3 -43 9 -68 15 -25 5 -56 12 -70 14 -14 3 -47 9
-75 15 -27 5 -68 12 -90 15 -23 4 -52 9 -65 11 -14 3 -47 8 -75 11 -27 3 -61
7 -75 10 -41 7 -171 17 -222 18 -27 0 -48 3 -48 6 0 6 -490 7 -495 1z"/>
<path d="M4077 16035 c-1 -1 -54 -5 -117 -9 -63 -4 -128 -8 -145 -10 -75 -9
-132 -17 -151 -21 -12 -3 -39 -7 -60 -10 -21 -4 -66 -13 -99 -21 -33 -8 -71
-17 -85 -19 -14 -2 -38 -8 -55 -15 -16 -6 -31 -11 -32 -11 -3 1 -6 0 -20 -4
-5 -1 -25 -5 -46 -9 -20 -5 -40 -12 -43 -17 -3 -5 -14 -9 -25 -9 -10 0 -27 -4
-37 -9 -32 -16 -127 -51 -140 -51 -6 0 -12 -4 -12 -8 0 -5 -6 -9 -12 -9 -22 0
-186 -83 -217 -109 -31 -26 -60 -88 -65 -139 -5 -57 33 -145 82 -192 39 -37
56 -37 137 -2 95 42 111 47 225 83 176 54 316 86 484 111 21 3 43 8 49 12 6 3
7 1 3 -5 -5 -9 -1 -10 16 -4 64 24 430 22 648 -3 110 -13 283 -50 405 -87 39
-12 72 -22 75 -23 38 -8 130 -52 148 -71 82 -87 242 -359 227 -385 -4 -5 -2
-9 3 -9 9 0 26 -60 19 -67 -4 -4 -172 52 -197 66 -8 4 -23 7 -32 5 -10 -1 -18
1 -18 5 0 5 -15 7 -32 6 -18 -2 -33 -4 -33 -5 0 -1 -8 -3 -18 -5 -27 -5 -76
-62 -104 -122 -28 -60 -36 -147 -17 -192 15 -37 66 -91 86 -91 8 0 18 -4 24
-9 5 -5 49 -26 99 -47 49 -20 130 -59 180 -85 86 -45 90 -49 90 -81 0 -18 -2
-37 -5 -43 -2 -5 -6 -21 -8 -35 -3 -27 -43 -200 -45 -200 -1 0 -64 20 -139 45
-76 25 -145 45 -153 45 -8 0 -15 5 -15 11 0 5 -4 8 -8 5 -5 -3 -44 6 -88 20
-57 18 -92 24 -124 20 -101 -12 -176 -108 -174 -222 2 -89 24 -115 154 -178
149 -72 234 -125 321 -197 28 -23 30 -27 15 -42 -9 -8 -16 -18 -16 -20 0 -3
-22 -44 -49 -90 -27 -47 -52 -94 -55 -105 -6 -17 -11 -16 -81 19 -126 65 -306
118 -382 115 -68 -4 -143 -83 -143 -153 0 -36 41 -81 98 -108 178 -84 252
-137 364 -254 91 -96 136 -120 238 -125 57 -4 109 8 177 41 58 27 333 208 345
227 4 6 8 7 8 3 0 -5 7 -2 15 6 8 8 31 25 52 38 21 13 40 25 43 28 12 14 124
86 128 83 3 -2 8 1 11 6 8 13 110 82 121 82 5 0 10 4 12 8 4 10 443 310 476
325 12 6 22 14 22 18 0 4 9 11 20 14 11 3 26 12 32 19 12 11 135 95 177 121 9
6 32 21 51 35 19 14 42 30 52 35 31 18 223 150 236 162 7 7 17 13 22 13 5 0
15 6 22 13 19 17 166 117 173 117 3 0 12 6 19 12 11 11 11 18 -3 43 -34 63
-115 185 -123 185 -4 0 -8 5 -8 11 0 9 -62 93 -128 174 -98 120 -374 405 -392
405 -5 0 -15 8 -22 18 -15 21 -218 185 -259 209 -16 10 -29 21 -29 25 0 4 -5
8 -10 8 -6 0 -34 17 -63 39 -29 21 -74 51 -100 67 -27 16 -61 37 -75 46 -15 9
-38 23 -52 31 -42 24 -320 165 -328 166 -23 3 -42 14 -42 23 0 6 -3 9 -6 6 -3
-3 -33 5 -67 19 -101 40 -217 81 -217 77 0 -3 -13 2 -30 11 -16 8 -33 15 -37
15 -10 0 -73 19 -98 30 -16 7 -104 34 -147 46 -5 1 -11 3 -15 4 -5 1 -12 3
-18 4 -48 9 -92 20 -100 25 -5 3 -19 7 -30 8 -11 2 -42 7 -70 13 -27 5 -70 12
-95 16 -25 4 -56 8 -70 10 -79 12 -140 16 -270 20 -80 2 -157 6 -173 7 -15 2
-28 3 -30 2z"/>
<path d="M2339 15485 c-3 -2 -14 -6 -25 -8 -38 -8 -71 -27 -192 -111 -118 -82
-216 -160 -275 -218 -15 -16 -29 -28 -31 -28 -10 0 -180 -179 -251 -264 -22
-27 -50 -60 -63 -75 -13 -14 -44 -55 -70 -91 -25 -36 -49 -67 -52 -70 -24 -20
-36 -130 -19 -173 24 -59 120 -127 172 -122 12 1 33 3 46 4 23 1 62 36 116
105 98 125 285 313 410 411 21 17 43 35 49 40 6 6 40 33 76 60 36 27 71 55 78
62 7 7 50 37 96 67 107 70 121 101 105 221 -4 28 -17 74 -29 102 -18 43 -30
55 -66 72 -43 21 -66 26 -75 16z"/>
<path d="M3757 15144 c-1 -2 -32 -6 -67 -9 -163 -16 -345 -68 -500 -143 -66
-32 -107 -93 -114 -169 -3 -36 29 -115 58 -142 43 -40 73 -41 191 -5 60 18
111 31 114 29 2 -3 9 -1 15 5 7 5 27 12 46 15 19 3 42 8 50 10 123 34 547 33
690 -1 14 -3 50 -6 80 -6 49 0 57 3 81 31 22 27 43 74 56 131 11 46 5 128 -12
160 -34 65 -17 59 -260 90 -62 7 -421 11 -428 4z"/>
<path d="M2567 14689 c-31 -21 -57 -36 -57 -34 0 3 -10 -4 -22 -14 -13 -11
-59 -48 -103 -83 -91 -72 -249 -227 -315 -308 -24 -30 -51 -62 -60 -71 -66
-71 -109 -157 -104 -211 9 -96 63 -147 143 -135 33 6 101 51 101 67 0 12 210
224 289 291 35 30 70 60 77 67 8 7 14 10 14 6 0 -4 6 0 13 9 13 18 42 39 164
121 45 30 86 64 92 75 21 38 -14 179 -53 217 -53 51 -106 52 -179 3z"/>
<path d="M3808 14315 c-2 -2 -32 -6 -68 -9 -180 -17 -372 -78 -404 -129 -18
-28 -30 -83 -27 -126 2 -44 29 -101 47 -101 8 0 14 -3 14 -8 0 -4 17 -12 38
-19 41 -13 359 -13 380 0 6 5 12 5 12 0 0 -8 56 -8 113 0 15 3 30 0 33 -5 3
-4 10 -5 17 -1 6 3 39 7 74 8 80 1 108 21 147 100 23 48 30 76 32 135 3 111
-19 131 -160 146 -68 7 -243 13 -248 9z"/>
<path d="M1130 14123 c-18 -7 -70 -54 -70 -64 0 -8 -61 -111 -71 -119 -14 -12
-111 -226 -106 -234 1 -1 -3 -9 -9 -17 -20 -24 -26 -94 -13 -138 16 -52 48
-82 100 -91 60 -11 91 10 134 93 19 37 32 67 29 67 -11 0 115 208 163 267 37
46 45 94 24 143 -31 73 -116 117 -181 93z"/>
<path d="M2905 13984 c-27 -14 -57 -32 -66 -40 -9 -8 -19 -11 -22 -7 -4 3 -7
1 -7 -5 0 -7 -7 -12 -15 -12 -8 0 -15 -4 -15 -10 0 -5 -5 -10 -11 -10 -19 0
-128 -92 -149 -124 -25 -41 -30 -85 -14 -117 39 -78 93 -72 304 29 133 64 170
95 173 142 3 64 -13 119 -45 150 -37 37 -67 38 -133 4z"/>
<path d="M7722 13740 c-29 -10 -101 -47 -160 -82 -59 -36 -115 -67 -124 -71
-10 -4 -18 -11 -18 -17 0 -6 -4 -9 -9 -6 -5 3 -14 -1 -21 -9 -7 -8 -19 -15
-26 -15 -8 0 -14 -4 -14 -9 0 -5 -6 -11 -12 -13 -7 -2 -61 -32 -121 -68 -59
-36 -115 -69 -125 -75 -51 -30 -98 -60 -103 -68 -3 -5 -10 -9 -15 -9 -5 0 -33
-16 -62 -34 -29 -19 -57 -34 -62 -34 -6 0 -10 -4 -10 -10 0 -5 -4 -10 -9 -10
-7 0 -535 -318 -668 -403 -24 -15 -47 -27 -52 -27 -5 0 -11 -4 -13 -8 -1 -5
-30 -23 -63 -42 -33 -19 -65 -39 -71 -45 -6 -5 -28 -19 -50 -30 -21 -11 -41
-23 -44 -26 -3 -3 -63 -40 -135 -83 -71 -43 -152 -93 -180 -111 -27 -17 -66
-40 -85 -51 -19 -10 -52 -31 -74 -46 -21 -16 -45 -28 -51 -28 -7 0 -15 -7 -19
-15 -3 -8 -10 -15 -16 -15 -12 0 -114 -62 -118 -72 -2 -4 -9 -8 -16 -8 -7 0
-23 -9 -36 -20 -13 -11 -27 -20 -31 -20 -8 0 -67 -37 -104 -65 -10 -8 -25 -15
-32 -15 -7 0 -13 -4 -13 -10 0 -5 -4 -10 -10 -10 -26 0 -223 -141 -285 -205
-138 -141 -325 -373 -325 -402 0 -7 -4 -13 -8 -13 -8 0 -33 -60 -39 -91 -6
-39 63 -55 156 -37 25 5 55 11 66 12 50 7 240 67 325 103 8 3 18 7 23 8 4 2
10 4 15 5 4 1 10 2 15 1 4 0 7 3 7 8 0 5 11 11 23 15 21 5 175 100 187 115 3
3 25 20 50 36 25 16 47 33 50 36 3 3 28 20 55 39 28 19 52 36 55 39 3 3 12 11
22 16 21 13 199 141 215 154 7 6 16 11 22 11 5 0 11 3 13 8 2 4 66 52 143 107
77 54 142 103 143 107 2 4 8 8 12 8 5 0 75 47 155 105 80 58 149 105 154 105
5 0 11 4 13 9 3 8 27 26 164 121 39 27 78 56 87 64 9 9 20 16 25 16 6 0 12 4
14 8 2 4 20 18 41 31 20 12 37 27 37 32 0 5 4 9 9 9 10 0 218 145 259 180 13
11 27 20 31 20 4 0 16 9 26 20 10 11 24 20 31 20 7 0 14 3 16 8 5 11 146 112
157 112 6 0 14 6 18 13 11 17 79 67 91 67 6 0 12 4 14 8 3 8 142 110 186 137
9 6 22 15 29 20 29 23 41 32 91 65 28 19 52 38 52 43 0 4 5 7 11 7 6 0 17 6
24 13 7 6 37 28 65 47 102 69 194 149 225 196 27 40 31 53 24 77 -10 34 -7 30
-39 48 -37 19 -118 19 -178 -1z"/>
<path d="M1754 13621 c-39 -11 -73 -48 -105 -117 -18 -38 -36 -70 -41 -72 -4
-2 -8 -10 -8 -17 0 -7 -9 -32 -20 -56 -22 -50 -24 -78 -10 -130 30 -107 148
-125 221 -35 10 12 41 68 71 126 45 89 53 113 52 156 -2 51 -22 96 -54 121
-22 17 -81 30 -106 24z"/>
<path d="M3885 13519 c-129 -17 -193 -36 -265 -75 -103 -56 -134 -124 -85
-182 15 -18 31 -30 35 -27 5 3 11 1 15 -4 8 -13 182 -6 330 14 11 1 30 3 42 4
12 0 35 13 52 27 40 33 49 81 27 149 -25 81 -65 106 -151 94z"/>
<path d="M18153 12472 c-14 -2 -23 -10 -23 -20 0 -30 26 -116 48 -158 20 -39
106 -125 121 -122 3 1 20 -5 36 -14 55 -29 185 -42 260 -26 108 23 207 99 249
193 31 67 44 145 24 146 -7 0 -36 2 -65 2 l-51 2 -6 -38 c-8 -48 -37 -105 -68
-133 -86 -79 -231 -82 -329 -6 -41 32 -51 46 -70 107 l-22 70 -41 0 c-23 0
-51 -1 -63 -3z"/>
<path d="M24067 12472 c-16 -3 -18 -10 -13 -45 18 -129 78 -212 190 -263 103
-47 253 -52 333 -11 17 9 33 13 37 10 3 -4 6 -1 6 5 0 6 8 13 18 16 62 20 151
160 155 243 l2 46 -55 0 c-79 -1 -78 -1 -75 -28 4 -36 -41 -120 -83 -154 -60
-47 -129 -58 -234 -36 -21 4 -42 13 -49 21 -6 8 -15 14 -20 14 -25 0 -80 83
-87 129 -6 45 -18 55 -63 56 -24 0 -52 -1 -62 -3z"/>
<path d="M10599 12385 c-4 -262 1 -1738 6 -1743 11 -11 134 -8 138 3 1 5 2
168 2 362 l-1 352 51 -5 c72 -7 332 -7 385 1 79 10 101 15 156 34 29 11 55 16
58 13 3 -3 6 0 6 6 0 7 5 12 11 12 17 0 109 68 137 102 14 17 31 35 37 42 14
14 59 100 74 141 44 124 35 298 -24 431 -31 71 -133 174 -206 208 -61 29 -189
67 -201 60 -4 -3 -8 -1 -8 3 0 10 -53 12 -373 16 l-247 2 -1 -40z m511 -109
c201 -14 338 -97 391 -235 24 -61 36 -223 19 -264 -14 -37 -23 -61 -26 -74 -6
-31 -103 -143 -123 -143 -5 0 -11 -4 -13 -8 -5 -12 -111 -59 -149 -67 -94 -18
-122 -21 -219 -19 -162 2 -240 6 -241 13 -1 3 -2 183 -3 400 -2 386 -1 393 18
401 20 7 220 5 346 -4z"/>
<path d="M12568 11876 c-1 -2 -25 -6 -53 -9 -44 -5 -84 -15 -135 -34 -8 -4
-18 -5 -22 -5 -5 1 -8 -1 -8 -6 0 -4 -15 -13 -32 -21 -48 -21 -95 -58 -161
-125 -66 -68 -129 -186 -151 -283 -14 -62 -15 -239 -2 -298 12 -49 57 -157 85
-200 34 -52 188 -206 199 -197 1 1 25 -9 53 -24 57 -28 55 -28 150 -49 66 -14
224 -15 295 0 182 36 359 180 437 355 20 46 40 110 41 135 1 11 4 25 7 30 18
33 -10 307 -32 321 -5 3 -9 13 -9 22 0 9 -10 33 -22 52 -12 19 -22 37 -23 40
-2 23 -95 124 -155 169 -19 14 -37 29 -40 32 -11 14 -180 83 -180 74 0 -3 -12
0 -27 6 -26 10 -206 22 -215 15z m202 -146 c72 -20 151 -64 208 -117 28 -27
52 -52 52 -55 0 -4 14 -29 30 -55 17 -26 39 -75 49 -109 18 -62 28 -224 15
-246 -4 -6 -8 -24 -9 -40 -6 -74 -97 -206 -194 -282 -57 -44 -186 -86 -254
-83 -21 2 -41 -1 -44 -5 -2 -5 -8 -6 -13 -3 -5 3 -30 8 -57 11 -104 12 -223
77 -291 159 -87 104 -126 213 -125 350 0 90 13 140 60 245 38 84 184 197 293
229 77 22 203 23 280 1z"/>
<path d="M14079 11845 c-3 -2 -19 -7 -37 -10 -46 -8 -162 -55 -162 -66 0 -5
-4 -8 -8 -6 -25 7 -163 -126 -210 -201 -17 -28 -28 -52 -24 -52 4 0 2 -4 -3
-8 -33 -23 -59 -187 -52 -316 7 -113 33 -201 87 -290 31 -51 123 -156 137
-156 4 0 14 -6 22 -14 65 -58 244 -114 359 -112 40 1 72 -3 72 -7 0 -5 5 -5
12 -1 10 7 62 14 116 17 12 0 22 4 22 7 0 4 6 7 13 8 24 2 47 8 53 15 4 4 16
7 26 7 10 0 18 5 18 10 0 6 9 10 20 10 11 0 20 4 20 8 0 5 10 13 23 19 12 6
43 30 69 53 l46 42 -39 41 c-21 23 -39 45 -39 49 0 4 -17 -10 -37 -31 -94 -94
-197 -133 -353 -133 -121 1 -184 16 -285 69 -65 34 -180 175 -191 236 -1 4 -2
8 -4 10 -1 1 -3 9 -5 17 -2 8 -7 26 -10 40 -12 48 -11 175 2 234 39 173 178
313 358 360 77 20 256 14 315 -11 8 -3 18 -7 23 -8 4 -2 9 -4 12 -5 3 -1 8 -3
13 -4 19 -5 90 -46 101 -60 22 -27 36 -18 66 38 32 61 32 59 -40 108 -43 29
-148 71 -205 83 -40 8 -295 17 -301 10z"/>
<path d="M15360 11835 c-232 -63 -414 -257 -446 -475 -8 -50 -8 -198 -1 -245
20 -137 118 -300 232 -385 38 -28 144 -80 162 -80 11 0 23 -4 29 -9 15 -15 80
-23 211 -26 71 -2 125 0 128 6 4 5 10 7 14 4 9 -5 102 19 141 38 50 23 145 90
167 116 l21 27 -38 43 -39 43 -33 -33 c-93 -93 -196 -130 -364 -131 -45 0 -90
4 -100 10 -10 5 -24 7 -31 5 -15 -5 -122 40 -169 72 -41 28 -94 80 -94 93 0 5
-9 17 -19 26 -11 10 -24 29 -30 44 -43 110 -41 98 -48 203 -6 85 17 239 36
239 4 0 13 16 20 35 16 45 132 163 186 190 22 11 43 24 46 28 3 5 9 8 13 8 3
-1 8 0 11 0 3 1 8 2 13 3 79 20 130 25 202 21 117 -8 130 -9 130 -15 0 -3 9
-6 20 -7 29 -2 120 -47 155 -76 l30 -25 33 56 34 56 -29 26 c-57 53 -141 90
-257 115 -75 16 -277 16 -336 0z"/>
<path d="M16445 11842 c-3 -3 -20 -5 -38 -4 l-33 2 1 -592 c1 -326 3 -598 3
-603 1 -6 32 -10 70 -10 75 -1 61 -11 166 120 76 94 76 94 116 145 19 25 39
50 45 56 5 6 24 28 40 49 17 21 35 43 40 49 6 6 28 34 50 61 21 28 42 52 45
55 3 3 17 21 31 40 15 19 35 45 45 56 11 12 33 39 49 60 17 21 56 70 87 109
32 38 61 75 66 80 4 6 28 36 52 68 l45 57 5 -502 5 -502 71 -1 70 -1 0 600
c-1 591 -1 599 -21 602 -19 3 -31 4 -105 4 -16 0 -30 -4 -30 -9 0 -5 -17 -30
-37 -54 -21 -24 -45 -53 -53 -63 -40 -52 -96 -120 -105 -130 -5 -6 -19 -23
-30 -39 -11 -15 -27 -35 -35 -44 -9 -9 -38 -45 -65 -80 -28 -35 -60 -74 -72
-87 -13 -13 -23 -27 -23 -33 0 -5 -4 -11 -8 -13 -4 -1 -46 -50 -92 -108 -46
-58 -92 -114 -102 -125 -10 -11 -39 -47 -65 -81 -93 -118 -107 -134 -112 -134
-3 0 -6 224 -6 497 l0 497 -32 7 c-18 3 -35 4 -38 1z"/>
<path d="M17983 11842 l-33 -3 0 -603 0 -602 68 2 c91 2 92 2 92 15 0 9 25 41
115 145 6 7 19 24 30 40 19 26 105 134 145 180 10 12 42 52 71 90 30 38 59 74
64 79 6 6 23 26 37 45 14 19 40 50 57 69 17 19 31 37 31 40 0 3 14 22 31 41
17 19 43 51 58 70 14 19 31 40 37 45 6 6 34 40 63 78 29 37 54 67 55 67 2 0 3
-219 4 -487 0 -269 1 -495 1 -503 1 -13 14 -16 65 -15 36 0 68 3 71 7 4 4 8
272 8 596 l2 590 -32 10 c-18 5 -35 7 -38 4 -3 -3 -23 -5 -43 -4 -36 2 -40 -2
-117 -99 -44 -55 -84 -106 -90 -112 -5 -7 -37 -46 -69 -87 -33 -41 -63 -77
-66 -80 -3 -3 -41 -50 -85 -105 -43 -55 -82 -102 -85 -105 -3 -3 -30 -36 -60
-75 -62 -79 -75 -95 -108 -133 -12 -15 -51 -64 -85 -109 -34 -45 -67 -84 -73
-86 -7 -4 -10 145 -10 487 0 270 -2 492 -5 494 -12 8 -78 17 -106 14z"/>
<path d="M19885 11829 c-74 -23 -136 -49 -153 -66 -7 -7 -16 -13 -20 -13 -4 0
-23 -14 -42 -31 -19 -17 -42 -36 -51 -43 -43 -31 -112 -144 -148 -241 -29 -79
-34 -244 -10 -351 7 -33 13 -61 14 -64 6 -35 87 -170 128 -212 114 -120 246
-181 417 -194 30 -2 60 -6 67 -8 6 -3 13 -2 16 0 3 3 37 7 76 9 39 2 75 7 81
10 5 3 18 8 27 10 74 15 188 79 242 136 34 35 34 35 -21 93 l-28 29 -32 -34
c-79 -83 -209 -132 -349 -131 -256 0 -427 122 -489 346 -29 104 -22 238 17
332 31 75 35 80 98 147 78 83 161 129 270 148 151 26 349 -20 440 -102 20 -18
21 -18 53 40 l32 59 -37 31 c-32 27 -117 75 -133 76 -3 0 -23 5 -45 12 -92 26
-116 29 -235 30 -95 1 -139 -4 -185 -18z"/>
<path d="M20995 11841 c-3 -2 -22 -5 -42 -5 l-38 -1 0 -593 c0 -327 2 -597 5
-600 3 -4 36 -7 73 -7 66 -1 68 0 64 22 -2 13 0 23 5 23 5 0 6 5 2 12 -8 13
-9 222 -1 235 3 5 2 15 -2 21 -4 7 -5 33 -1 57 4 25 5 47 2 50 -5 4 -6 198 -1
221 1 5 1 14 0 19 -3 13 -3 368 -1 380 2 6 1 15 0 20 -1 6 -1 40 -1 76 0 67 0
67 -29 71 -17 3 -32 2 -35 -1z"/>
<path d="M21763 11840 c-38 -6 -58 -22 -210 -172 -92 -92 -224 -222 -292 -289
l-124 -122 31 -28 c17 -15 28 -30 25 -33 -4 -3 -2 -6 3 -6 6 0 135 -124 289
-275 153 -151 281 -276 284 -276 11 -3 191 -4 191 -2 0 4 -159 159 -596 580
l-54 52 53 53 c29 29 118 115 198 192 286 274 319 308 319 318 0 5 -6 8 -12 5
-7 -2 -24 -1 -38 3 -14 3 -44 3 -67 0z"/>
<path d="M22276 11843 c-3 -3 -1 -13 4 -23 5 -10 7 -20 4 -23 -8 -7 -7 -1147
1 -1155 3 -4 36 -7 72 -7 l66 0 56 70 c31 38 59 74 64 80 4 5 17 21 30 36 12
14 36 42 52 63 99 127 178 221 186 224 5 2 9 8 9 13 0 9 17 31 78 100 17 20
32 39 32 43 0 6 30 44 58 72 7 8 63 76 123 151 61 76 114 139 118 141 5 1 8
-212 9 -475 0 -263 1 -487 1 -498 1 -18 8 -20 71 -20 63 0 70 1 71 20 0 11 1
282 2 602 l2 581 -37 4 c-21 2 -38 1 -38 -2 0 -3 -15 -4 -33 -2 -38 4 -40 3
-144 -128 -37 -47 -70 -87 -73 -90 -3 -3 -41 -50 -85 -105 -43 -55 -83 -101
-87 -103 -4 -2 -8 -8 -8 -13 0 -5 -8 -17 -17 -27 -10 -10 -31 -35 -48 -56 -16
-21 -37 -46 -45 -56 -19 -24 -33 -40 -105 -130 -33 -41 -65 -82 -72 -90 -6 -8
-40 -49 -74 -90 -34 -41 -67 -83 -73 -92 -6 -10 -13 -18 -16 -18 -3 0 -5 224
-5 498 l-1 497 -58 2 c-32 1 -65 4 -71 7 -7 2 -16 2 -19 -1z"/>
<path d="M23870 11840 c-13 -8 -15 -95 -16 -597 0 -323 1 -593 3 -598 2 -6 32
-11 68 -10 69 0 80 6 127 66 30 39 75 95 100 124 9 11 42 52 72 90 31 39 62
77 69 85 7 8 87 107 177 220 90 113 169 210 175 216 5 6 19 23 30 39 11 15 30
38 43 51 12 13 22 25 22 28 0 3 17 23 38 46 l37 40 0 -502 0 -503 70 0 70 0 2
50 c3 60 3 54 0 140 -1 39 2 73 8 77 6 5 6 8 0 8 -8 0 -12 122 -5 140 1 3 1
10 0 15 -7 30 -4 155 4 155 5 0 4 5 -1 13 -8 10 -10 124 -3 152 1 6 1 12 0 15
-1 3 -3 60 -4 128 -1 79 2 122 9 122 7 0 7 3 0 8 -12 9 -14 152 -2 152 5 0 1
7 -8 16 -9 10 -26 14 -40 11 -14 -2 -25 0 -25 5 0 5 -4 7 -8 4 -5 -3 -25 -6
-45 -8 -21 -1 -37 -7 -37 -14 0 -7 -3 -14 -7 -16 -5 -1 -28 -28 -53 -58 -25
-30 -48 -56 -52 -58 -5 -2 -8 -8 -8 -13 0 -5 -8 -17 -17 -27 -29 -30 -63 -72
-63 -77 0 -3 -8 -13 -17 -23 -37 -38 -63 -72 -63 -82 0 -6 -4 -10 -8 -10 -5 0
-42 -43 -83 -95 -40 -52 -77 -95 -80 -95 -4 0 -9 -6 -11 -14 -2 -8 -22 -36
-45 -63 -23 -26 -94 -113 -159 -193 -64 -80 -118 -147 -119 -149 -12 -12 -21
14 -16 41 4 18 4 48 0 66 -4 18 -3 32 2 32 6 0 5 8 -1 19 -7 14 -7 22 0 26 6
4 7 11 3 18 -10 16 -10 57 0 57 4 0 4 8 -1 18 -5 9 -6 26 -2 37 4 11 4 30 -1
41 -4 12 -3 26 3 32 6 6 6 12 -1 16 -7 4 -7 15 -1 30 5 13 7 26 4 29 -9 8 -10
77 -2 77 5 0 4 8 -1 18 -6 11 -6 24 0 35 6 9 6 17 1 17 -9 0 -7 64 3 80 3 6 2
10 -3 10 -10 0 -9 30 1 47 4 6 3 14 -2 18 -6 3 -7 15 -2 28 5 12 5 31 1 42 -4
11 -3 25 2 32 5 7 5 14 -1 17 -6 4 -7 16 -2 29 5 12 5 31 1 42 -4 11 -6 23 -4
26 2 4 -18 7 -44 6 -27 0 -53 3 -58 6 -6 3 -16 2 -24 -3z"/>
<path d="M11164 9912 c-28 -3 -33 -10 -69 -95 -21 -51 -50 -117 -64 -147 -14
-30 -26 -57 -26 -60 -1 -7 -43 -97 -66 -142 -10 -21 -17 -38 -14 -38 2 0 -6
-21 -19 -47 -36 -72 -86 -190 -86 -201 0 -6 -5 -12 -10 -14 -6 -2 -12 -13 -13
-26 0 -12 -6 -22 -11 -22 -5 0 -6 -3 -3 -7 4 -3 1 -13 -5 -21 -7 -8 -13 -19
-14 -26 -1 -6 -22 -56 -47 -111 -25 -55 -71 -158 -102 -230 -31 -71 -67 -153
-80 -181 -13 -28 -51 -116 -85 -195 -34 -79 -68 -156 -76 -170 l-13 -27 64 0
c36 0 68 5 73 12 5 6 19 36 32 66 12 30 36 83 51 118 16 34 29 64 29 67 0 2
13 32 29 67 64 139 82 181 84 192 1 6 4 13 7 16 3 3 10 17 17 31 l11 25 432 0
433 -1 40 -90 c22 -49 49 -110 60 -135 12 -25 21 -47 22 -50 0 -3 8 -21 17
-40 9 -19 26 -57 38 -85 12 -27 29 -66 38 -85 9 -19 17 -37 18 -40 1 -3 6 -19
13 -36 12 -31 13 -31 86 -32 l73 -1 -15 37 c-8 20 -23 55 -33 77 -10 22 -34
78 -55 125 -21 47 -47 105 -58 130 -11 25 -21 47 -22 50 -2 6 -32 75 -50 115
-21 48 -50 114 -90 205 -21 47 -47 105 -58 130 -11 25 -21 47 -22 50 -4 12
-27 66 -51 118 -14 31 -39 89 -56 127 -17 39 -44 98 -59 133 -16 35 -29 65
-29 67 0 2 -11 28 -24 57 -13 29 -34 76 -46 103 -106 242 -104 238 -136 239
-16 1 -43 0 -60 -2z m204 -602 c9 -19 17 -37 17 -40 0 -3 12 -30 27 -62 14
-31 29 -67 33 -80 4 -12 11 -25 16 -28 5 -3 10 -15 12 -25 2 -11 18 -51 36
-89 45 -99 45 -109 -4 -111 -22 -1 -48 2 -57 7 -10 5 -18 5 -18 1 0 -5 -36 -9
-80 -8 -48 0 -80 4 -80 10 0 7 -3 7 -8 0 -9 -13 -292 -14 -292 -2 0 4 -6 5
-12 0 -17 -10 -128 -11 -134 -1 -3 4 0 8 7 8 7 0 10 3 7 6 -4 3 9 40 28 82 19
42 39 86 43 97 25 55 51 115 72 160 12 28 23 53 24 58 2 4 4 9 5 12 1 3 3 9 4
15 0 5 7 15 14 22 6 6 12 17 12 24 0 6 13 40 29 75 34 76 64 142 66 149 1 3 8
19 15 35 7 17 14 32 15 35 0 3 7 16 14 29 12 22 18 12 93 -160 43 -101 87
-200 96 -219z"/>
<path d="M19837 9304 c-1 -1 -24 -4 -52 -7 -97 -11 -163 -34 -240 -83 -58 -37
-155 -126 -155 -143 0 -6 -4 -11 -8 -11 -9 0 -63 -102 -66 -124 -1 -6 -5 -16
-9 -23 -4 -7 -10 -34 -13 -60 -2 -26 -6 -49 -9 -51 -6 -6 -276 -4 -282 2 -3 2
-5 110 -5 238 l1 233 -72 1 -73 1 1 -556 0 -556 78 -1 c72 -1 77 1 78 20 0 12
0 126 1 254 l1 232 143 0 c130 0 144 -2 145 -17 4 -48 8 -68 30 -135 41 -131
106 -221 204 -284 61 -39 181 -88 195 -79 5 3 11 1 14 -4 4 -5 14 -8 24 -6 9
1 25 -2 34 -6 10 -6 19 -5 23 1 4 6 15 6 31 0 14 -6 30 -7 36 -4 6 4 27 8 47
9 49 3 151 28 151 37 0 5 8 8 18 8 30 0 138 78 194 139 43 47 107 157 114 196
7 38 15 74 19 95 11 47 6 175 -9 247 -15 68 -53 164 -68 171 -5 2 -8 9 -8 16
0 19 -105 121 -164 159 -49 33 -120 64 -161 73 -24 5 -185 21 -188 18z m150
-160 c65 -20 121 -55 171 -107 90 -95 123 -180 126 -330 0 -33 -2 -61 -7 -64
-4 -2 -5 -8 -2 -13 3 -5 -1 -31 -9 -58 -44 -149 -145 -264 -261 -298 -110 -31
-223 -23 -330 26 -63 28 -165 113 -165 136 0 8 -4 14 -8 14 -5 0 -15 17 -24
38 -35 80 -42 120 -42 227 0 102 27 204 72 265 33 47 99 108 137 128 89 47
249 64 342 36z"/>
<path d="M15098 9284 c-3 -2 -19 -6 -35 -8 -45 -6 -180 -62 -205 -86 -12 -11
-25 -20 -28 -20 -8 0 -85 -75 -120 -117 -67 -80 -102 -187 -105 -327 -5 -216
71 -371 239 -490 130 -93 274 -124 471 -102 22 2 40 5 40 6 0 1 8 3 17 5 36 7
158 58 158 67 0 4 7 8 15 8 17 0 175 149 175 166 0 7 5 14 11 16 5 2 11 10 13
18 2 8 11 32 20 52 9 21 16 39 15 40 0 2 5 17 11 33 18 45 21 220 5 288 -7 31
-14 61 -15 65 0 4 -16 39 -36 78 -65 132 -200 245 -343 288 -28 8 -51 12 -51
9 0 -3 -6 -1 -12 4 -13 10 -231 16 -240 7z m202 -121 c14 -3 31 -7 38 -9 8 -1
39 -15 69 -30 106 -51 209 -182 230 -291 10 -48 10 -207 1 -253 -21 -104 -109
-222 -202 -272 -46 -24 -104 -49 -129 -54 -40 -10 -192 -11 -222 -2 -16 5 -37
11 -46 13 -43 9 -127 62 -173 108 -111 113 -154 268 -122 447 16 91 85 198
170 268 25 20 114 63 144 69 97 19 186 21 242 6z"/>
<path d="M16520 9283 c-92 -27 -148 -48 -162 -61 -10 -8 -18 -12 -18 -8 0 4
-6 2 -12 -3 -143 -117 -209 -219 -243 -371 -12 -56 -12 -209 -1 -265 20 -94
94 -239 140 -276 12 -10 35 -29 51 -43 26 -22 112 -69 180 -98 37 -16 129 -30
210 -32 62 -2 183 15 205 29 5 3 19 8 31 10 35 7 142 72 177 107 l32 34 -31
42 c-17 23 -34 42 -37 42 -4 0 -23 -15 -42 -33 -61 -55 -116 -83 -200 -101
-89 -20 -270 -9 -270 17 0 5 -3 8 -6 4 -18 -17 -137 55 -196 118 -31 33 -82
115 -83 135 0 3 -3 10 -7 15 -17 27 -26 181 -15 245 13 73 52 170 69 170 4 0
8 5 8 11 0 30 119 125 198 158 95 39 281 37 378 -6 22 -9 42 -17 45 -17 4 -1
26 -14 50 -29 43 -28 44 -28 59 -9 31 40 45 63 45 75 0 32 -156 108 -270 133
-36 8 -264 14 -285 7z"/>
<path d="M17776 9283 c-2 -2 -19 -7 -38 -10 -18 -3 -37 -8 -43 -13 -5 -4 -22
-10 -37 -14 -48 -11 -144 -76 -207 -139 -106 -106 -151 -214 -156 -378 -3 -91
11 -189 29 -201 6 -4 8 -8 3 -8 -4 0 -1 -13 8 -30 9 -16 13 -30 10 -30 -14 0
85 -131 137 -182 60 -57 185 -128 226 -128 12 0 22 -3 22 -7 0 -17 287 -19
308 -3 1 2 11 4 22 5 11 1 22 4 25 5 3 1 9 3 13 4 51 8 167 81 240 150 51 48
120 146 104 146 -4 0 -1 4 6 8 7 5 15 18 17 30 3 12 7 31 9 42 3 11 7 24 10
29 4 5 8 38 11 73 2 34 5 65 6 68 1 3 0 10 -1 15 -1 6 -4 30 -5 55 -2 25 -6
56 -10 70 -4 14 -8 32 -9 41 -4 30 -59 134 -95 179 -88 112 -211 192 -331 217
-32 6 -268 12 -274 6z m212 -118 c71 -9 180 -65 236 -123 55 -56 113 -167 123
-237 9 -67 4 -230 -7 -230 -1 0 -3 -10 -6 -23 -7 -37 -54 -119 -93 -162 -40
-44 -159 -122 -173 -114 -4 3 -8 1 -8 -4 0 -5 -6 -9 -12 -10 -7 0 -24 -3 -38
-7 -62 -16 -198 -11 -263 10 -164 53 -286 197 -303 358 -3 23 -6 51 -7 62 -2
11 0 30 5 43 5 15 4 21 -2 17 -5 -3 -8 0 -5 7 2 7 6 29 9 48 15 97 52 167 127
243 67 66 158 113 241 123 29 4 54 7 56 9 3 2 29 0 120 -10z"/>
<path d="M21077 9274 c-1 -1 -23 -4 -48 -7 -97 -12 -179 -43 -246 -95 -39 -29
-40 -39 -10 -97 l24 -43 29 23 c16 14 35 24 42 25 6 0 12 5 12 10 0 6 9 10 20
10 11 0 20 4 20 8 0 5 28 17 63 28 46 14 91 19 177 19 101 0 121 -3 165 -25
28 -13 58 -31 67 -40 51 -47 59 -166 15 -227 -52 -73 -116 -101 -233 -102 -43
0 -96 -1 -116 -2 l-38 -1 0 -51 0 -52 138 -1 c198 -1 268 -29 309 -123 32 -75
-17 -193 -98 -233 -79 -38 -122 -48 -224 -52 -119 -4 -232 28 -332 96 l-42 28
-30 -44 c-17 -25 -31 -51 -31 -58 0 -15 79 -69 125 -86 48 -18 147 -43 188
-48 21 -2 46 -8 55 -12 28 -14 193 -6 262 13 178 49 279 155 283 300 3 116
-61 215 -166 253 -29 11 -59 22 -67 25 -12 4 -11 6 3 6 42 2 128 69 157 124
21 39 34 96 33 148 -1 44 -31 139 -44 139 -5 0 -9 6 -9 13 0 29 -116 97 -200
117 -45 11 -244 22 -253 14z"/>
<path d="M12323 9261 c-10 -7 -10 -92 0 -107 3 -6 3 -14 0 -18 -10 -10 -10
-106 0 -106 5 0 5 -5 1 -11 -10 -16 -11 -229 -1 -229 5 0 5 -6 0 -12 -9 -16
-11 -95 -1 -130 3 -16 4 -28 0 -28 -9 0 -8 -253 2 -268 4 -7 3 -12 -1 -12 -5
0 -8 -24 -6 -52 2 -29 3 -60 3 -68 -1 -43 1 -74 5 -79 4 -3 401 -5 415 -1 3 0
32 3 65 5 52 3 87 8 105 15 3 1 9 2 14 1 16 -3 144 50 156 65 7 8 18 14 24 14
16 0 73 88 84 130 12 49 7 148 -12 191 -8 20 -28 50 -44 67 -33 35 -124 82
-159 82 -36 0 -27 13 24 34 61 26 126 91 145 147 21 60 16 145 -11 209 -32 77
-147 138 -291 156 -70 8 -507 12 -517 5z m417 -115 c107 -6 183 -27 221 -60
32 -28 52 -63 44 -76 -3 -6 -3 -10 2 -10 4 0 7 -12 6 -27 -4 -88 -39 -139
-119 -175 -44 -20 -68 -22 -246 -25 l-198 -3 0 190 0 189 68 3 c37 2 81 2 97
1 17 -1 73 -4 125 -7z m128 -491 c83 -17 150 -57 167 -100 20 -49 20 -126 0
-166 -31 -59 -114 -102 -221 -114 -48 -5 -296 -9 -351 -6 -10 1 -13 48 -13
202 l0 200 181 -2 c99 -1 206 -7 237 -14z"/>
<path d="M13416 9254 c-9 -8 -13 -78 -7 -114 1 -3 103 -5 229 -5 l227 0 0
-498 0 -497 25 -1 c25 -2 75 -1 98 0 7 1 10 6 7 11 -3 6 0 10 7 10 8 0 9 3 3
8 -6 4 -9 18 -8 32 4 32 4 39 0 70 -2 14 1 33 5 43 5 9 5 17 0 17 -5 0 -7 12
-5 28 5 31 5 38 0 72 -2 14 1 33 5 43 5 9 5 17 0 17 -5 0 -7 12 -5 28 5 31 5
38 0 72 -2 14 1 33 5 43 5 9 5 17 0 17 -5 0 -7 12 -5 28 5 31 5 38 0 72 -2 14
1 33 5 43 5 9 5 17 0 17 -5 0 -7 12 -5 28 5 31 5 37 0 72 -2 14 0 35 5 48 4
12 4 22 0 22 -9 0 -7 138 3 148 3 4 104 7 223 7 l216 0 1 63 c1 34 -1 62 -5
63 -3 1 -232 2 -509 3 -348 1 -508 -2 -515 -10z"/>
</g>
</svg>
