<svg width="132" height="35" viewBox="0 0 132 35" fill="none" xmlns="http://www.w3.org/2000/svg">
<path d="M26.1346 0C14.3231 0 3.9058 7.35979 0.0506133 18.2782C-0.113437 18.7635 0.132639 19.4104 0.62479 19.5721C1.11694 19.7339 1.69111 19.4913 1.85518 19.006C5.46429 8.81561 15.1433 1.94104 26.1346 1.94104C35.2395 1.94104 43.442 6.6319 48.0355 14.0726C48.1995 14.3152 48.6096 15.0431 49.5119 14.7196C50.4142 14.3152 49.7579 13.102 49.5939 12.9403C44.6724 5.01436 35.8137 0 26.1346 0Z" fill="#3695C5"/>
<path d="M58.7565 30.1747H53.917V3.08093C54.4092 3.08093 55.6396 3.08093 57.6082 3.08093C59.6588 3.08093 61.0532 3.08093 61.7095 3.08093C69.7479 3.08093 72.2907 7.28652 72.2907 11.8156C72.2907 14.2419 71.3884 16.3448 69.6659 18.0432C67.8614 19.7416 65.4006 20.6312 62.2836 20.6312C60.6431 20.6312 59.4947 20.6312 58.7565 20.5504V30.1747ZM58.7565 7.52916V15.8595C59.9869 15.9403 61.1352 16.0212 62.2016 16.0212C65.2365 16.0212 67.2872 14.5654 67.2872 11.6539C67.2872 8.82319 65.5646 7.44828 62.2016 7.44828C61.6274 7.44828 60.4791 7.52916 58.7565 7.52916Z" fill="#3695C5"/>
<path d="M69 30L78.7096 3H82.2904L92 29.9197H87.7306L85.3204 23.0089H75.4731L73.0629 29.9197H69V30ZM80.4312 9.10714L77.0569 18.6696H83.8054L80.4312 9.10714Z" fill="#3695C5"/>
<path d="M113 7.43283V3H132V7.43283H124.566V30H120.504V7.43283H113Z" fill="#3695C5"/>
<path fill-rule="evenodd" clip-rule="evenodd" d="M99.0376 7.5291V14.4036H102.319C104.697 14.4036 106.421 13.1905 106.421 10.8451C106.421 8.66138 104.78 7.44823 102.074 7.44823C100.925 7.44823 99.9402 7.44823 99.0376 7.5291ZM102.155 3H101.909C99.284 3 96.7419 3.08088 94.2804 3.16175V30.0938C96.0027 30.1746 98.6277 30.2555 101.909 30.2555C108.06 30.2555 112.08 27.5056 112.08 22.1678C112.08 18.6901 110.112 16.5874 107.241 15.8594V15.7786C109.866 14.5654 111.178 12.5435 111.178 9.6319C111.178 5.66893 108.388 3 102.155 3ZM99.0376 18.5283V25.6455C100.105 25.7264 101.171 25.8072 102.237 25.8072C105.6 25.8072 107.241 24.5133 107.241 21.9252C107.241 19.6607 105.518 18.4475 102.483 18.4475H99.0376V18.5283Z" fill="#3695C5"/>
<path d="M26.8729 34.7771C26.4628 34.2918 29.1697 31.2994 29.7438 30.895C30.3181 30.4907 46.7231 20.4619 47.8715 19.8149C49.1019 19.1678 50.7423 19.734 48.6097 21.2707C46.477 22.8073 31.9586 33.1595 31.3843 33.564C30.7282 34.0493 27.3651 35.2624 26.8729 34.7771Z" fill="#3695C5"/>
<path d="M26.0527 16.2564C25.3145 16.0137 22.7717 15.8519 21.0491 16.7417C20.639 16.9842 20.5569 17.793 20.8031 18.1974C21.1311 18.6018 21.6233 18.6018 22.3615 18.6018C23.674 18.5209 24.5762 18.5209 25.4785 18.5209C26.2987 18.4401 26.7088 16.499 26.0527 16.2564Z" fill="#FAC202"/>
<path d="M18.3424 18.0356C17.8502 18.2782 17.112 18.7635 16.7838 19.0061C16.4558 19.2488 16.0456 19.734 16.2918 20.2193C16.4558 20.5428 16.9479 20.6237 17.5222 20.3001C18.0142 20.0576 18.5884 19.8149 18.8345 19.6531C19.1627 19.4913 19.4087 19.1678 19.2446 18.7635C19.2446 18.2782 18.8345 17.7929 18.3424 18.0356Z" fill="#FAC202"/>
<path d="M24.4942 21.028C24.002 21.028 23.0177 21.2706 22.7716 21.4324C22.5255 21.5941 21.8693 21.8368 21.9514 22.4029C22.0334 22.8074 22.4435 22.9691 23.0997 22.8882C23.6739 22.8074 24.3301 22.8074 24.6582 22.7264C24.9863 22.7264 25.3144 22.4839 25.3144 21.9986C25.2324 21.5133 25.0683 20.9472 24.4942 21.028Z" fill="#FAC202"/>
<path d="M32.1225 6.3893C30.9742 5.98491 29.7438 5.66139 28.4314 5.49965C27.4471 5.33789 26.3807 5.33789 25.3965 5.33789C22.6075 5.41877 19.9828 6.06578 17.6041 7.27893C17.1119 7.52157 16.8659 8.16859 17.0298 8.73469C17.1939 9.3009 17.522 9.70524 17.8501 9.70524C17.9321 9.70524 18.0142 9.70524 18.0962 9.62442C20.1469 8.73469 22.3615 8.24941 24.5762 8.16859C25.8886 8.16859 27.283 8.24941 28.6775 8.57293C29.4978 8.73469 30.236 8.97738 31.0562 9.3009C31.9584 10.3523 32.5327 11.3228 32.7787 12.3742C32.2866 12.2124 31.7944 12.0507 31.3843 11.8889C31.3023 11.8889 31.1382 11.808 30.9742 11.808C30.5641 11.808 30.236 12.1315 29.9898 12.6977C29.9079 12.8595 29.7438 13.3447 29.9079 13.8299C29.9898 14.1534 30.236 14.3152 30.5641 14.4769C31.3843 14.8005 32.2046 15.2049 32.9428 15.6092C32.8607 16.2563 32.6967 16.9841 32.5327 17.5503C31.6304 17.2268 30.8101 16.9841 29.7438 16.6606C29.4157 16.5798 28.6775 16.4989 28.2674 17.3886C28.1033 17.7929 27.9392 18.6017 28.8415 19.0061C29.8258 19.4105 30.5641 19.8957 31.3023 20.4619C30.9742 21.028 30.6461 21.5941 30.4 22.0794C29.5797 21.5941 28.5134 21.1897 27.6111 21.1089C27.1189 21.1089 26.6269 21.675 26.7088 22.1603C26.7909 22.6456 27.283 22.7264 27.9392 23.0499C28.7595 23.5352 29.2516 23.9395 29.5797 24.344C29.9079 24.8292 30.3179 24.991 30.6461 25.0718C31.4664 25.3145 32.2046 24.9101 32.9428 24.4248C34.0911 23.616 45.0005 16.2563 45.0005 16.2563C45.0005 16.2563 41.2274 9.05821 32.1225 6.3893Z" fill="#FAC202"/>
<path d="M7.84308 17.3886C7.67903 17.3077 7.51498 17.2268 7.35093 17.2268C7.02283 17.2268 6.77675 17.3886 6.6127 17.7121L6.53067 17.8738C5.95649 18.7635 5.79244 19.087 5.38232 20.1385C5.21827 20.6236 5.38232 21.1898 5.79244 21.3516C5.87447 21.4324 6.03852 21.4324 6.12055 21.4324C6.20257 21.4324 6.20257 21.4324 6.2846 21.4324C6.53067 21.3516 6.77675 21.1089 6.85877 20.7854C7.18688 19.8958 8.08916 18.6017 8.17117 18.6017C8.41725 18.1165 8.17117 17.6313 7.84308 17.3886Z" fill="#FAC202"/>
<path d="M10.3037 15.6901C11.7801 13.749 13.2567 12.6168 14.8972 11.4036L15.3892 11.0801C15.7994 10.8375 15.7994 10.1905 15.5533 9.38166C15.3892 8.97732 15.0612 8.73474 14.7331 8.73474C14.569 8.73474 14.487 8.81556 14.3229 8.81556C12.2723 10.0287 10.5498 11.5653 8.74522 13.9917C8.33509 14.477 8.33509 15.2857 8.74522 15.6092C8.9913 15.8519 9.3194 16.0136 9.56547 16.0136C9.9756 16.0136 10.2217 15.8519 10.3037 15.6901Z" fill="#FAC202"/>
<path d="M11.124 20.3811C10.7959 20.3811 10.5498 20.6237 10.3858 20.9472C10.3037 21.1899 10.2217 21.2707 10.2217 21.3515C10.0577 21.5942 10.0577 21.6751 9.81159 22.1603C9.64753 22.6456 9.81159 23.2118 10.2217 23.3735C10.7959 23.6162 11.206 23.1309 11.3701 22.8074C11.5341 22.4838 11.5341 22.403 11.6161 22.3221C11.6982 22.2413 11.7802 22.0795 11.8623 21.8368C12.1083 21.3515 11.9442 20.7854 11.6161 20.5429C11.3701 20.4619 11.288 20.3811 11.124 20.3811Z" fill="#FAC202"/>
<path d="M17.44 14.3153C17.44 14.2343 17.358 14.1535 17.358 14.0726C17.276 13.749 16.9479 13.5065 16.6197 13.5065C16.4557 13.5065 16.3737 13.5065 16.2917 13.5873C14.6511 14.477 12.8466 16.418 12.1083 17.5503C11.7803 17.9547 11.8623 18.6017 12.1904 18.9252C12.3545 19.087 12.5186 19.087 12.6826 19.087C12.7646 19.087 12.7646 19.087 12.8466 19.087C13.0927 19.006 13.2568 18.9252 13.4208 18.6826C13.995 17.8738 15.9636 16.0945 17.358 15.2857C17.6861 15.0431 17.522 14.6388 17.44 14.3153Z" fill="#FAC202"/>
<path d="M24.4121 13.2638C25.2324 13.2638 26.0526 13.3447 26.8729 13.5065C26.9548 13.5065 27.0369 13.5065 27.1189 13.5065C27.1189 13.5065 27.1189 13.5065 27.201 13.5065C27.6111 13.4255 27.8571 12.6977 27.8571 12.3742C27.9392 12.0507 27.9392 11.6462 27.6931 11.3228C27.6111 11.161 27.5291 11.0801 27.3651 11.0801C26.4628 10.9183 25.5605 10.8375 24.7402 10.8375C24.002 10.8375 23.2638 10.9183 22.5255 10.9993C21.6233 11.161 20.4748 11.5654 19.8187 11.8889C19.4085 12.1315 19.1625 12.6168 19.2446 13.102C19.3265 13.5873 19.6547 13.9916 20.0647 13.9916C20.1468 13.9916 20.1468 13.9916 20.2288 13.9916C20.967 13.7491 22.0334 13.4255 22.7716 13.3447C23.3457 13.3447 23.8379 13.2638 24.4121 13.2638Z" fill="#FAC202"/>
</svg>
