<svg width="30" height="30" viewBox="0 0 30 30" fill="none" xmlns="http://www.w3.org/2000/svg">
<g clip-path="url(#clip0)">
<rect width="30" height="30" fill="white"/>
<path fill-rule="evenodd" clip-rule="evenodd" d="M15.6914 7.15385C20.0714 7.84616 22.1461 9.92308 22.6072 14.0769C22.6072 14.3077 22.6072 14.3077 22.6072 14.3077C22.6072 14.7692 22.6072 15.2308 23.0682 15.2308C23.5293 15.2308 23.5293 14.7692 23.5293 14.5385C23.5293 14.3077 23.5293 14.3077 23.5293 14.3077C23.5293 10.1538 20.0714 6.46154 15.9219 6.23077C15.4609 6.23077 14.9998 6 14.7693 6.69231C14.7693 7.15385 15.4609 7.15385 15.6914 7.15385Z" fill="#EBB600"/>
<path fill-rule="evenodd" clip-rule="evenodd" d="M16.6135 8.30719C16.1525 8.30719 15.6914 8.07642 15.4609 8.76873C15.4609 9.23026 15.9219 9.23026 16.383 9.23026C19.1493 9.92257 20.0714 10.8456 20.5324 13.3841C20.5324 13.6149 20.5324 13.8456 20.5324 13.8456C20.5324 14.0764 20.5324 14.538 20.9935 14.3072C21.224 14.3072 21.4545 14.0764 21.4545 14.0764C21.4545 13.8456 21.4545 13.6149 21.4545 13.3841C21.4545 11.0764 19.1493 8.76873 16.6135 8.30719Z" fill="#EBB600"/>
<path fill-rule="evenodd" clip-rule="evenodd" d="M16.8444 10.3839C16.6138 10.3839 16.3833 10.3839 16.1528 10.8454C15.9223 11.307 16.3833 11.307 16.6138 11.307C17.7665 11.5378 18.4581 12.2301 18.4581 13.1531C18.4581 13.3839 18.4581 13.6147 18.6886 13.6147L18.9191 13.8454C19.1497 13.8454 19.1497 13.6147 19.1497 13.6147C19.3802 13.6147 19.3802 13.3839 19.3802 12.9224C19.3802 11.7685 17.997 10.3839 16.8444 10.3839Z" fill="#EBB600"/>
<path fill-rule="evenodd" clip-rule="evenodd" d="M22.3769 18.923C21.9158 18.4615 21.2242 17.9999 20.7632 17.7692C19.6106 16.8461 18.4579 16.8461 17.7663 17.9999C17.3053 18.923 16.6137 18.923 15.9221 18.4615C13.8474 17.7692 12.4643 16.3845 11.5422 14.5384C11.3116 14.0769 11.3116 13.8461 11.3116 13.6153C11.3116 13.1538 11.5422 12.6922 12.0032 12.2307C12.4643 11.9999 12.9253 11.5384 12.9253 10.8461C12.9253 9.92301 10.6201 6.92301 9.92848 6.69224C9.46743 6.46147 9.00638 6.46147 8.77585 6.69224C6.70112 7.38455 5.77902 8.99993 6.70112 10.8461C7.16217 11.9999 7.62323 13.1538 8.08428 14.0769C10.6201 18.2307 14.539 21.4615 19.38 23.5384C19.6106 23.5384 20.0716 23.7692 20.3021 23.7692C21.6853 23.7692 23.0684 22.3845 23.5295 21.2307C23.9905 20.0769 23.0684 19.3845 22.3769 18.923Z" fill="#EBB600"/>
<path fill-rule="evenodd" clip-rule="evenodd" d="M29.9683 15C29.7378 23.3077 23.2831 30 14.9842 30C6.68524 30 0 23.3077 0 15C0 6.69231 6.68524 0 14.9842 0H29.9683V15ZM14.9842 1.61538C22.361 1.61538 28.3546 7.61538 28.3546 15C28.3546 22.3846 22.361 28.3846 14.9842 28.3846C7.60734 28.3846 1.61368 22.3846 1.61368 15C1.61368 7.61538 7.60734 1.61538 14.9842 1.61538Z" fill="#EBB600" stroke="#2C0C0C" stroke-width="0.00694456"/>
</g>
<defs>
<clipPath id="clip0">
<rect width="30" height="30" fill="white"/>
</clipPath>
</defs>
</svg>
