<svg width="798" height="867" viewBox="0 0 798 867" fill="none" xmlns="http://www.w3.org/2000/svg">
<g clip-path="url(#clip0)">
<path fill-rule="evenodd" clip-rule="evenodd" d="M417.391 206.746C533.899 226.754 589.086 286.777 601.35 406.823C601.35 413.492 601.35 413.492 601.35 413.492C601.35 426.831 601.35 440.169 613.614 440.169C625.878 440.169 625.878 426.831 625.878 420.162C625.878 413.492 625.878 413.492 625.878 413.492C625.878 293.446 533.899 186.739 423.523 180.069C411.259 180.069 398.995 173.4 392.863 193.408C392.863 206.746 411.259 206.746 417.391 206.746Z" fill="white"/>
<path fill-rule="evenodd" clip-rule="evenodd" d="M441.921 240.078C429.657 240.078 417.393 233.409 411.261 253.416C411.261 266.755 423.525 266.755 435.789 266.755C509.373 286.762 533.901 313.439 546.165 386.801C546.165 393.47 546.165 400.139 546.165 400.139C546.165 406.809 546.165 420.147 558.429 413.478C564.561 413.478 570.693 406.809 570.693 406.809C570.693 400.139 570.693 393.47 570.693 386.801C570.693 320.109 509.373 253.416 441.921 240.078Z" fill="white"/>
<path fill-rule="evenodd" clip-rule="evenodd" d="M448.059 300.095C441.927 300.095 435.795 300.095 429.663 313.434C423.531 326.772 435.795 326.772 441.927 326.772C472.587 333.441 490.983 353.449 490.983 380.126C490.983 386.795 490.983 393.464 497.115 393.464L503.247 400.134C509.379 400.134 509.379 393.464 509.379 393.464C515.511 393.464 515.511 386.795 515.511 373.457C515.511 340.111 478.719 300.095 448.059 300.095Z" fill="white"/>
<path fill-rule="evenodd" clip-rule="evenodd" d="M595.224 546.875C582.96 533.537 564.565 520.198 552.301 513.529C521.641 486.852 490.981 486.852 472.585 520.198C460.321 546.875 441.925 546.875 423.529 533.537C368.341 513.529 331.549 473.514 307.021 420.16C300.889 406.821 300.889 400.152 300.889 393.483C300.889 380.144 307.021 366.806 319.285 353.468C331.549 346.798 343.813 333.46 343.813 313.452C343.813 286.775 282.494 200.075 264.098 193.406C251.834 186.737 239.57 186.737 233.438 193.406C178.25 213.414 153.722 260.098 178.25 313.452C190.514 346.798 202.778 380.144 215.042 406.821C282.494 526.868 386.737 620.237 515.509 680.26C521.641 680.26 533.905 686.929 540.037 686.929C576.828 686.929 613.62 646.914 625.884 613.568C638.148 580.221 613.62 560.214 595.224 546.875Z" fill="white"/>
<path fill-rule="evenodd" clip-rule="evenodd" d="M797.157 433.5C791.025 673.592 619.33 867 398.579 867C177.827 867 0 673.592 0 433.5C0 193.408 177.827 0 398.579 0H797.157V433.5ZM398.579 46.6846C594.802 46.6846 754.233 220.085 754.233 433.5C754.233 646.915 594.802 820.315 398.579 820.315C202.355 820.315 42.9238 646.915 42.9238 433.5C42.9238 220.085 202.355 46.6846 398.579 46.6846Z" fill="white" stroke="white" stroke-width="0.00694456"/>
</g>
<defs>
<clipPath id="clip0">
<rect width="798" height="867" fill="white"/>
</clipPath>
</defs>
</svg>
