<svg width="718" height="225" viewBox="0 0 718 225" fill="none" xmlns="http://www.w3.org/2000/svg">
<path opacity="0.1" d="M1.38436 1.74451V0.69091H0.330763V1.74451H1.38436ZM143.62 23.554L142.891 24.3147L143.62 23.554ZM143.62 134.814L142.891 134.053L143.62 134.814ZM57.9625 156.623V155.57H56.909V156.623H57.9625ZM57.9625 223V224.054H59.0161V223H57.9625ZM1.38436 223H0.330763V224.054H1.38436V223ZM57.9625 102.89H56.909V103.943H57.9625V102.89ZM103.162 96.2522L102.417 95.5072L102.408 95.5163L102.399 95.5256L103.162 96.2522ZM103.162 62.4317L102.399 63.1584L102.417 63.177L102.435 63.1947L103.162 62.4317ZM57.9625 55.7941V54.7405H56.909V55.7941H57.9625ZM1.38436 2.7981H87.3579V0.69091H1.38436V2.7981ZM87.3579 2.7981C109.441 2.7981 127.929 9.97563 142.891 24.3147L144.349 22.7933C128.968 8.05303 109.947 0.69091 87.3579 0.69091V2.7981ZM142.891 24.3147C157.839 38.64 165.324 56.9008 165.324 79.1839H167.431C167.431 56.3731 159.744 37.5472 144.349 22.7933L142.891 24.3147ZM165.324 79.1839C165.324 101.467 157.839 119.728 142.891 134.053L144.349 135.575C159.744 120.821 167.431 101.995 167.431 79.1839H165.324ZM142.891 134.053C127.929 148.392 109.441 155.57 87.3579 155.57V157.677C109.947 157.677 128.968 150.315 144.349 135.575L142.891 134.053ZM87.3579 155.57H57.9625V157.677H87.3579V155.57ZM56.909 156.623V223H59.0161V156.623H56.909ZM57.9625 221.946H1.38436V224.054H57.9625V221.946ZM2.43796 223V1.74451H0.330763V223H2.43796ZM57.9625 103.943H87.3579V101.836H57.9625V103.943ZM87.3579 103.943C93.9567 103.943 99.504 101.621 103.925 96.9788L102.399 95.5256C98.391 99.7339 93.4024 101.836 87.3579 101.836V103.943ZM103.907 96.9972C108.552 92.3517 110.853 86.3831 110.853 79.1839H108.746C108.746 85.8923 106.622 91.3025 102.417 95.5072L103.907 96.9972ZM110.853 79.1839C110.853 71.9854 108.552 66.1102 103.888 61.6688L102.435 63.1947C106.622 67.182 108.746 72.4749 108.746 79.1839H110.853ZM103.925 61.7051C99.504 57.0632 93.9567 54.7405 87.3579 54.7405V56.8477C93.4024 56.8477 98.391 58.95 102.399 63.1584L103.925 61.7051ZM87.3579 54.7405H57.9625V56.8477H87.3579V54.7405ZM56.909 55.7941V102.89H59.0161V55.7941H56.909ZM363.727 223V224.054H365.184L364.728 222.67L363.727 223ZM302.724 223L301.714 223.3L301.938 224.054H302.724V223ZM293.242 191.076L294.252 190.776L294.028 190.022H293.242V191.076ZM219.595 191.076V190.022H218.809L218.585 190.776L219.595 191.076ZM210.113 223V224.054H210.899L211.123 223.3L210.113 223ZM148.793 223L147.793 222.67L147.336 224.054H148.793V223ZM221.808 1.74451V0.69091H221.046L220.807 1.41433L221.808 1.74451ZM290.713 1.74451L291.713 1.41434L291.475 0.69091H290.713V1.74451ZM256.26 67.1729L257.27 66.8717L256.253 63.4633L255.25 66.8756L256.26 67.1729ZM234.135 142.4L233.124 142.102L232.727 143.453H234.135V142.4ZM278.702 142.4V143.453H280.116L279.712 142.099L278.702 142.4ZM363.727 221.946H302.724V224.054H363.727V221.946ZM303.734 222.7L294.252 190.776L292.232 191.376L301.714 223.3L303.734 222.7ZM293.242 190.022H219.595V192.13H293.242V190.022ZM218.585 190.776L209.103 222.7L211.123 223.3L220.605 191.376L218.585 190.776ZM210.113 221.946H148.793V224.054H210.113V221.946ZM149.794 223.33L222.808 2.07468L220.807 1.41433L147.793 222.67L149.794 223.33ZM221.808 2.7981H290.713V0.69091H221.808V2.7981ZM289.712 2.07468L362.727 223.33L364.728 222.67L291.713 1.41434L289.712 2.07468ZM255.25 66.8756L233.124 142.102L235.146 142.697L257.271 67.4702L255.25 66.8756ZM234.135 143.453H278.702V141.346H234.135V143.453ZM279.712 142.099L257.27 66.8717L255.251 67.4741L277.692 142.701L279.712 142.099ZM519.522 108.579L518.872 107.75L517.659 108.702L518.986 109.486L519.522 108.579ZM527.108 205.3L526.421 204.5L526.42 204.501L527.108 205.3ZM379.815 223H378.762V224.054H379.815V223ZM379.815 1.74451V0.69091H378.762V1.74451H379.815ZM520.154 18.8128L519.462 19.6073L519.469 19.6132L519.476 19.619L520.154 18.8128ZM436.393 52.3172V51.2636H435.34V52.3172H436.393ZM436.393 87.0859H435.34V88.1395H436.393V87.0859ZM478.432 82.6608L479.126 83.4537L479.139 83.4418L479.153 83.4294L478.432 82.6608ZM436.393 172.427H435.34V173.481H436.393V172.427ZM485.386 167.37L486.108 168.137L486.119 168.126L486.131 168.115L485.386 167.37ZM485.386 140.187L486.108 139.42L485.386 140.187ZM436.393 135.13V134.076H435.34V135.13H436.393ZM518.986 109.486C537.198 120.248 546.284 136.438 546.284 158.204H548.391C548.391 135.718 538.933 118.825 520.058 107.672L518.986 109.486ZM546.284 158.204C546.284 177.744 539.646 193.135 526.421 204.5L527.795 206.099C541.542 194.285 548.391 178.279 548.391 158.204H546.284ZM526.42 204.501C512.957 216.101 495.204 221.946 473.059 221.946V224.054C495.586 224.054 513.866 218.099 527.796 206.098L526.42 204.501ZM473.059 221.946H379.815V224.054H473.059V221.946ZM380.869 223V1.74451H378.762V223H380.869ZM379.815 2.7981H467.053V0.69091H379.815V2.7981ZM467.053 2.7981C489.21 2.7981 506.64 8.43912 519.462 19.6073L520.846 18.0183C507.54 6.42875 489.568 0.69091 467.053 0.69091V2.7981ZM519.476 19.619C532.484 30.5619 539.014 45.5279 539.014 64.6443H541.121C541.121 44.9882 534.376 29.3999 520.833 18.0066L519.476 19.619ZM539.014 64.6443C539.014 82.8884 532.296 97.218 518.872 107.75L520.173 109.408C534.143 98.4472 541.121 83.4868 541.121 64.6443H539.014ZM465.473 51.2636H436.393V53.3708H465.473V51.2636ZM435.34 52.3172V87.0859H437.447V52.3172H435.34ZM436.393 88.1395H465.473V86.0323H436.393V88.1395ZM465.473 88.1395C470.948 88.1395 475.529 86.6006 479.126 83.4537L477.738 81.8679C474.592 84.6211 470.533 86.0323 465.473 86.0323V88.1395ZM479.153 83.4294C482.776 80.0326 484.543 75.4128 484.543 69.7016H482.436C482.436 74.9477 480.831 78.9674 477.711 81.8922L479.153 83.4294ZM484.543 69.7016C484.543 64.1871 482.767 59.6784 479.153 56.2897L477.711 57.827C480.84 60.7599 482.436 64.68 482.436 69.7016H484.543ZM479.153 56.2897C475.558 52.92 470.968 51.2636 465.473 51.2636V53.3708C470.513 53.3708 474.563 54.8751 477.711 57.827L479.153 56.2897ZM436.393 173.481H471.478V171.374H436.393V173.481ZM471.478 173.481C477.391 173.481 482.3 171.721 486.108 168.137L484.664 166.603C481.307 169.762 476.944 171.374 471.478 171.374V173.481ZM486.131 168.115C489.928 164.318 491.813 159.512 491.813 153.779H489.705C489.705 159.003 488.008 163.257 484.641 166.625L486.131 168.115ZM491.813 153.779C491.813 147.848 489.935 143.022 486.108 139.42L484.664 140.954C488.001 144.095 489.705 148.33 489.705 153.779H491.813ZM486.108 139.42C482.3 135.836 477.391 134.076 471.478 134.076V136.184C476.944 136.184 481.307 137.796 484.664 140.954L486.108 139.42ZM471.478 134.076H436.393V136.184H471.478V134.076ZM435.34 135.13V172.427H437.447V135.13H435.34ZM550.177 1.74451V0.69091H549.123V1.74451H550.177ZM716.119 1.74451H717.172V0.69091H716.119V1.74451ZM716.119 56.4262V57.4798H717.172V56.4262H716.119ZM661.437 56.4262V55.3726H660.383V56.4262H661.437ZM661.437 223V224.054H662.49V223H661.437ZM604.859 223H603.805V224.054H604.859V223ZM604.859 56.4262H605.912V55.3726H604.859V56.4262ZM550.177 56.4262H549.123V57.4798H550.177V56.4262ZM550.177 2.7981H716.119V0.69091H550.177V2.7981ZM715.065 1.74451V56.4262H717.172V1.74451H715.065ZM716.119 55.3726H661.437V57.4798H716.119V55.3726ZM660.383 56.4262V223H662.49V56.4262H660.383ZM661.437 221.946H604.859V224.054H661.437V221.946ZM605.912 223V56.4262H603.805V223H605.912ZM604.859 55.3726H550.177V57.4798H604.859V55.3726ZM551.231 56.4262V1.74451H549.123V56.4262H551.231Z" fill="black"/>
</svg>
